<?xml version="1.0" encoding="UTF-8" standalone="no"?>
<!-- Created with Inkscape (http://www.inkscape.org/) -->

<svg
   width="116.99684mm"
   height="130.74123mm"
   viewBox="0 0 116.99684 130.74123"
   version="1.1"
   id="svg1"
   xml:space="preserve"
   sodipodi:docname="ccwlogo.svg"
   xmlns:inkscape="http://www.inkscape.org/namespaces/inkscape"
   xmlns:sodipodi="http://sodipodi.sourceforge.net/DTD/sodipodi-0.dtd"
   xmlns="http://www.w3.org/2000/svg"
   xmlns:svg="http://www.w3.org/2000/svg"><sodipodi:namedview
     id="namedview1"
     pagecolor="#ffffff"
     bordercolor="#666666"
     borderopacity="1.0"
     inkscape:showpageshadow="2"
     inkscape:pageopacity="0.0"
     inkscape:pagecheckerboard="0"
     inkscape:deskcolor="#d1d1d1"
     inkscape:document-units="mm" /><defs
     id="defs1"><filter
       inkscape:collect="always"
       style="color-interpolation-filters:sRGB"
       id="filter3"
       x="-0.028676892"
       y="-0.025508387"
       width="1.0573538"
       height="1.0510168"><feGaussianBlur
         inkscape:collect="always"
         stdDeviation="1.3221315"
         id="feGaussianBlur3" /></filter></defs><g
     inkscape:label="Layer 1"
     inkscape:groupmode="layer"
     id="layer1"
     transform="translate(776.64258,-120.40581)"><g
       id="g3"
       inkscape:export-filename="ccwdarklogo.svg"
       inkscape:export-xdpi="57.4384"
       inkscape:export-ydpi="57.4384"><g
         id="g2"
         style="fill:#ffffff;stroke:none;filter:url(#filter3)"
         transform="translate(-286.29998,34.152536)"><path
           id="path1"
           style="font-size:80.2332px;line-height:120%;font-family:'Old London';-inkscape-font-specification:'Old London';text-align:center;letter-spacing:0px;word-spacing:0px;text-anchor:middle;fill:#ffffff;stroke:none;stroke-width:0.524269px;stroke-opacity:1"
           d="m -459.24871,89.426386 -15.56494,13.157854 v 19.09548 c 0,2.67444 -0.37461,4.70711 -1.12345,6.09782 -3.26282,-4.2791 -4.89428,-8.8521 -4.89428,-13.71958 0,-7.75586 3.23632,-14.308324 9.70846,-19.657204 -5.02795,1.65816 -9.01295,4.89396 -11.95483,9.707944 -2.72792,4.49305 -4.09174,9.521 -4.09174,15.08383 0,4.70701 1.09617,9.01288 3.28921,12.91756 1.97908,3.42328 4.89453,6.12482 8.74571,8.1039 3.58375,1.71164 7.4618,2.56728 11.63392,2.56728 0.9628,0 1.87166,-0.0537 2.72748,-0.16071 0.90931,-0.0535 1.76547,-0.1333 2.5678,-0.24029 0.78546,-0.12689 1.5491,-0.30408 2.29702,-0.51832 -1.52671,3.56287 -2.29081,7.4248 -2.29081,11.58637 0,4.70701 1.09668,9.01288 3.28972,12.91756 1.97908,3.42328 4.89453,6.1243 8.74572,8.10338 3.58374,1.71164 7.46127,2.5678 11.63339,2.5678 0.9628,0 1.87218,-0.0537 2.728,-0.16071 0.90932,-0.0535 1.76548,-0.13381 2.56781,-0.24081 2.67005,-0.43132 5.12088,-1.37247 7.35717,-2.81327 0.1476,2.13747 1.35855,4.58902 3.66179,7.36338 v 19.54764 c 0,2.90839 -0.78263,5.0618 -2.34869,6.46007 5.98458,1.62199 10.87851,3.83149 14.68179,6.62802 2.62874,-2.12536 5.20151,-3.18792 7.71839,-3.18792 2.1813,0 5.45334,1.06256 9.81594,3.18792 3.63549,-3.13211 7.57851,-5.28552 11.82925,-6.46007 v -24.16183 c 0,-2.74061 -1.90179,-5.76104 -5.70508,-9.06095 l -11.40964,8.80877 c -0.22372,-3.18805 -2.04164,-6.09631 -5.45341,-8.72505 l -11.32592,8.47338 c 0,-2.40501 -1.03478,-4.97778 -3.10421,-7.71839 -2.0135,-2.85246 -3.02049,-4.58599 -3.02049,-5.20123 0,-0.34343 0.0592,-0.69568 0.15297,-1.05317 0.9345,-1.18702 1.81407,-2.50165 2.63756,-3.94704 0.18293,-0.17817 0.36436,-0.35604 0.56534,-0.53692 l -0.14211,-0.22789 c 0.18058,-0.33461 0.36194,-0.66729 0.53692,-1.01493 l -0.40101,-0.0801 c -1.16373,0.8728 -1.9099,1.41766 -2.72748,2.01848 -0.87521,0.56937 -1.65466,1.14925 -2.33784,1.73995 -0.14353,0.1062 -0.49626,0.37666 -0.55139,0.41341 -3.15584,2.08607 -6.41824,3.12953 -9.78803,3.12953 -0.42792,0 -1.07016,-0.0537 -1.92598,-0.16072 -0.85582,-0.16046 -1.49756,-0.24081 -1.92547,-0.24081 v -38.03024 c 1.92559,0.64186 3.79758,1.31021 5.6162,2.00557 1.8721,0.64185 3.66425,1.31072 5.3759,2.00607 l 6.89983,-7.54217 c -5.45585,0 -10.69771,-1.52451 -15.72565,-4.57337 l -15.56494,13.15837 v 19.09548 c 0,2.67444 -0.37461,4.70711 -1.12345,6.09782 -3.26282,-4.2791 -4.89427,-8.85261 -4.89427,-13.72009 0,-3.30586 0.59354,-6.39083 1.7694,-9.25939 3.25865,-2.31868 6.03788,-5.75327 8.33334,-10.31358 l -0.39894,-0.0796 c 0.002,-0.001 0.003,-0.003 0.005,-0.004 -3.65106,1.20408 -6.74964,3.24415 -9.30073,6.11229 -1.9964,0.79306 -4.033,1.1927 -6.11073,1.1927 -0.42791,0 -1.06964,-0.0537 -1.92547,-0.16072 -0.85582,-0.16046 -1.49807,-0.24029 -1.92598,-0.24029 V 97.529886 c 1.92559,0.64187 3.79809,1.31021 5.61671,2.00557 1.87211,0.641864 3.66374,1.310724 5.37538,2.006074 l 6.89984,-7.542174 c -5.45585,0 -10.69771,-1.52399 -15.72565,-4.57285 z m -4.09174,6.81974 v 39.073584 c -4.92096,-1.17675 -8.77189,-3.42333 -11.5533,-6.73964 2.88839,-2.56745 4.86732,-4.68048 5.9371,-6.33863 1.44419,-2.30002 2.16628,-5.00103 2.16628,-8.10338 V 99.054226 Z m 28.97084,34.255794 v 39.07307 c -4.92096,-1.17675 -8.7724,-3.42282 -11.55382,-6.73913 2.88839,-2.56745 4.86784,-4.68048 5.93762,-6.33863 1.4442,-2.30001 2.16628,-5.00103 2.16628,-8.10338 v -15.08383 z m 29.99713,49.67707 c 1.56606,1.73385 2.377,2.68475 2.43293,2.85254 0.39151,0.55931 0.58756,1.2025 0.58756,1.9296 v 22.65185 c -3.85922,-1.28641 -6.93574,-2.46113 -9.22889,-3.52382 v -18.96008 z m 17.53433,0 c 0.39152,0.39151 0.69923,0.72701 0.92294,1.00666 0.27966,0.22372 0.5035,0.44756 0.67128,0.67128 1.06269,1.06268 1.5937,2.09745 1.5937,3.1042 v 22.65185 c -1.78978,-0.50338 -3.04838,-0.83887 -3.77548,-1.00666 -1.11862,-0.27965 -2.18116,-0.58736 -3.18792,-0.92294 -1.00675,-0.33559 -1.98543,-0.67107 -2.93625,-1.00666 v -19.54764 z" /></g><g
         id="g1"
         transform="translate(-286.29998,34.152536)"><path
           id="text4"
           style="font-size:80.2332px;line-height:120%;font-family:'Old London';-inkscape-font-specification:'Old London';text-align:center;letter-spacing:0px;word-spacing:0px;text-anchor:middle;fill:#000000;stroke:#000000;stroke-width:0.524269px;stroke-opacity:1"
           d="m -459.24871,89.426386 -15.56494,13.157854 v 19.09548 c 0,2.67444 -0.37461,4.70711 -1.12345,6.09782 -3.26282,-4.2791 -4.89428,-8.8521 -4.89428,-13.71958 0,-7.75586 3.23632,-14.308324 9.70846,-19.657204 -5.02795,1.65816 -9.01295,4.89396 -11.95483,9.707944 -2.72792,4.49305 -4.09174,9.521 -4.09174,15.08383 0,4.70701 1.09617,9.01288 3.28921,12.91756 1.97908,3.42328 4.89453,6.12482 8.74571,8.1039 3.58375,1.71164 7.4618,2.56728 11.63392,2.56728 0.9628,0 1.87166,-0.0537 2.72748,-0.16071 0.90931,-0.0535 1.76547,-0.1333 2.5678,-0.24029 0.78546,-0.12689 1.5491,-0.30408 2.29702,-0.51832 -1.52671,3.56287 -2.29081,7.4248 -2.29081,11.58637 0,4.70701 1.09668,9.01288 3.28972,12.91756 1.97908,3.42328 4.89453,6.1243 8.74572,8.10338 3.58374,1.71164 7.46127,2.5678 11.63339,2.5678 0.9628,0 1.87218,-0.0537 2.728,-0.16071 0.90932,-0.0535 1.76548,-0.13381 2.56781,-0.24081 2.67005,-0.43132 5.12088,-1.37247 7.35717,-2.81327 0.1476,2.13747 1.35855,4.58902 3.66179,7.36338 v 19.54764 c 0,2.90839 -0.78263,5.0618 -2.34869,6.46007 5.98458,1.62199 10.87851,3.83149 14.68179,6.62802 2.62874,-2.12536 5.20151,-3.18792 7.71839,-3.18792 2.1813,0 5.45334,1.06256 9.81594,3.18792 3.63549,-3.13211 7.57851,-5.28552 11.82925,-6.46007 v -24.16183 c 0,-2.74061 -1.90179,-5.76104 -5.70508,-9.06095 l -11.40964,8.80877 c -0.22372,-3.18805 -2.04164,-6.09631 -5.45341,-8.72505 l -11.32592,8.47338 c 0,-2.40501 -1.03478,-4.97778 -3.10421,-7.71839 -2.0135,-2.85246 -3.02049,-4.58599 -3.02049,-5.20123 0,-0.34343 0.0592,-0.69568 0.15297,-1.05317 0.9345,-1.18702 1.81407,-2.50165 2.63756,-3.94704 0.18293,-0.17817 0.36436,-0.35604 0.56534,-0.53692 l -0.14211,-0.22789 c 0.18058,-0.33461 0.36194,-0.66729 0.53692,-1.01493 l -0.40101,-0.0801 c -1.16373,0.8728 -1.9099,1.41766 -2.72748,2.01848 -0.87521,0.56937 -1.65466,1.14925 -2.33784,1.73995 -0.14353,0.1062 -0.49626,0.37666 -0.55139,0.41341 -3.15584,2.08607 -6.41824,3.12953 -9.78803,3.12953 -0.42792,0 -1.07016,-0.0537 -1.92598,-0.16072 -0.85582,-0.16046 -1.49756,-0.24081 -1.92547,-0.24081 v -38.03024 c 1.92559,0.64186 3.79758,1.31021 5.6162,2.00557 1.8721,0.64185 3.66425,1.31072 5.3759,2.00607 l 6.89983,-7.54217 c -5.45585,0 -10.69771,-1.52451 -15.72565,-4.57337 l -15.56494,13.15837 v 19.09548 c 0,2.67444 -0.37461,4.70711 -1.12345,6.09782 -3.26282,-4.2791 -4.89427,-8.85261 -4.89427,-13.72009 0,-3.30586 0.59354,-6.39083 1.7694,-9.25939 3.25865,-2.31868 6.03788,-5.75327 8.33334,-10.31358 l -0.39894,-0.0796 c 0.002,-0.001 0.003,-0.003 0.005,-0.004 -3.65106,1.20408 -6.74964,3.24415 -9.30073,6.11229 -1.9964,0.79306 -4.033,1.1927 -6.11073,1.1927 -0.42791,0 -1.06964,-0.0537 -1.92547,-0.16072 -0.85582,-0.16046 -1.49807,-0.24029 -1.92598,-0.24029 V 97.529886 c 1.92559,0.64187 3.79809,1.31021 5.61671,2.00557 1.87211,0.641864 3.66374,1.310724 5.37538,2.006074 l 6.89984,-7.542174 c -5.45585,0 -10.69771,-1.52399 -15.72565,-4.57285 z m -4.09174,6.81974 v 39.073584 c -4.92096,-1.17675 -8.77189,-3.42333 -11.5533,-6.73964 2.88839,-2.56745 4.86732,-4.68048 5.9371,-6.33863 1.44419,-2.30002 2.16628,-5.00103 2.16628,-8.10338 V 99.054226 Z m 28.97084,34.255794 v 39.07307 c -4.92096,-1.17675 -8.7724,-3.42282 -11.55382,-6.73913 2.88839,-2.56745 4.86784,-4.68048 5.93762,-6.33863 1.4442,-2.30001 2.16628,-5.00103 2.16628,-8.10338 v -15.08383 z m 29.99713,49.67707 c 1.56606,1.73385 2.377,2.68475 2.43293,2.85254 0.39151,0.55931 0.58756,1.2025 0.58756,1.9296 v 22.65185 c -3.85922,-1.28641 -6.93574,-2.46113 -9.22889,-3.52382 v -18.96008 z m 17.53433,0 c 0.39152,0.39151 0.69923,0.72701 0.92294,1.00666 0.27966,0.22372 0.5035,0.44756 0.67128,0.67128 1.06269,1.06268 1.5937,2.09745 1.5937,3.1042 v 22.65185 c -1.78978,-0.50338 -3.04838,-0.83887 -3.77548,-1.00666 -1.11862,-0.27965 -2.18116,-0.58736 -3.18792,-0.92294 -1.00675,-0.33559 -1.98543,-0.67107 -2.93625,-1.00666 v -19.54764 z" /></g></g></g></svg>
